<svg id="Layer_1" data-name="Layer 1" xmlns="http://www.w3.org/2000/svg" viewBox="0 0 163.75 20.08"><defs><style>.cls-1,.cls-2{fill:none;stroke:#3c3c3b;stroke-miterlimit:10;}.cls-1{stroke-width:1.46px;}.cls-2{stroke-width:1.13px;}.cls-3{fill:#3c3c3b;}</style></defs><path class="cls-1" d="M23.08,14.28A9.31,9.31,0,1,1,13.77,5,9.31,9.31,0,0,1,23.08,14.28Z" transform="translate(-3.74 -4.24)"/><polygon class="cls-2" points="7.42 5.02 15.38 10.04 7.42 15.06 7.42 5.02"/><path class="cls-3" d="M38.68,14.83l.24,0a4.41,4.41,0,0,0,4-4.36c0-1.39-.51-4.62-5.32-4.62H31.8V22.59h2V15.06h2.82l0,.08L41,22.67l-.12.07H43.6Zm-4.87-1.49V7.54H37c1,0,3.82,0,3.82,2.9S38,13.34,37,13.34Z" transform="translate(-3.74 -4.24)"/><polygon class="cls-3" points="48.44 10.7 56.54 10.7 56.54 8.84 48.44 8.84 48.44 3.44 57.14 3.44 57.14 1.58 46.42 1.58 46.42 18.35 57.58 18.35 57.58 16.48 48.44 16.48 48.44 10.7"/><path class="cls-3" d="M78.81,18.37l1.72,4.22H82.9L75.72,5.82h-1.9L66.43,22.59H68.8l1.68-4.22ZM74.54,8.51h.25l3.3,8.14H71.18Z" transform="translate(-3.74 -4.24)"/><path class="cls-3" d="M101.23,18.92a5.4,5.4,0,0,1-4.5,2.23,6.44,6.44,0,0,1-6.51-6.8c0-4.11,2.74-7.1,6.51-7.1a5.44,5.44,0,0,1,4.15,1.9l1.7-1.29a7.36,7.36,0,0,0-5.77-2.47c-5.15,0-8.75,3.68-8.75,9A8.67,8.67,0,0,0,96.69,23a7.81,7.81,0,0,0,6.25-2.81Z" transform="translate(-3.74 -4.24)"/><polygon class="cls-3" points="104.06 3.44 109.56 3.44 109.56 18.35 111.57 18.35 111.57 3.44 117.07 3.44 117.07 1.57 104.06 1.57 104.06 3.44"/><rect class="cls-3" x="123.46" y="1.57" width="2.01" height="16.77"/><polygon class="cls-3" points="144.34 1.58 139.14 15.46 138.88 15.46 138.84 15.36 133.87 1.58 131.51 1.58 137.98 18.35 139.94 18.35 146.55 1.58 144.34 1.58"/><polygon class="cls-3" points="154.61 10.7 162.71 10.7 162.71 8.84 154.61 8.84 154.61 3.44 163.32 3.44 163.32 1.58 152.6 1.58 152.6 18.35 163.75 18.35 163.75 16.48 154.61 16.48 154.61 10.7"/></svg>